<?xml version="1.0" encoding="utf-8"?>
<!-- Generator: Adobe Illustrator 28.0.0, SVG Export Plug-In . SVG Version: 6.00 Build 0)  -->
<svg version="1.1" id="Capa_1" xmlns="http://www.w3.org/2000/svg" xmlns:xlink="http://www.w3.org/1999/xlink" x="0px" y="0px"
	 viewBox="0 0 393 409" style="enable-background:new 0 0 393 409;" xml:space="preserve">
<style type="text/css">
	.st0{fill:#FFFFFF;}
	.st1{fill:#F7C472;}
	.st2{fill:#FAD69D;}
	.st3{fill:#F6F4F5;}
	.st4{fill:#E23D53;}
	.st5{fill:#EDEBED;}
</style>
<g>
	<path class="st0" d="M43.5,344.6c-4-4-9.3-6-15.8-6.2c-3.9-0.1-8.1-0.2-12.4-0.2c-7.3,0-12,0.1-14.2,0.4c-0.8,0.2-1.3,0.5-1.2,1
		v0.6c0.7,9.5,1.1,18.6,1.1,27.3c0,3.1,0,7.7-0.1,13.8c-0.1,6.1-0.1,10.7-0.1,13.8c0,0.8,0.4,1.2,1.2,1.2c1.7,0,4.2,0,7.6,0.1
		c3.4,0.1,5.9,0.1,7.6,0.1c0.6,0,0.9-0.4,0.9-1c0-1.2-0.2-3.1-0.4-5.6c-0.3-2.5-0.4-4.4-0.4-5.7c0-1,0.6-1.5,1.8-1.5
		c1.1,0,2.8,0.1,5,0.2c2.2,0.1,3.9,0.2,5,0.2c6.6,0,11.7-2.2,15.5-6.6c3.5-4.1,5.3-9.5,5.3-16.2C49.9,353.8,47.9,348.5,43.5,344.6z
		 M24.4,370c-4.9,0-7.4-0.2-7.4-0.8c0-0.9,0-2.1-0.1-3.8c-0.1-1.7-0.1-2.9-0.1-3.8c0-6.1,0.1-9.2,0.3-9.6c0.2-0.5,2.5-0.7,6.9-0.7
		c6.3,0,9.4,3.2,9.4,9.6C33.4,367,30.5,370,24.4,370z"/>
	<path class="st0" d="M74,354.7c-6.4,0-11.5,2-15.2,6s-5.6,9.2-5.6,15.6c0,6.1,2,11,5.9,14.9c3.9,3.9,8.9,5.8,15,5.8
		c6.3,0,11.4-2,15.2-5.9c3.9-3.9,5.8-9,5.8-15.3c0-6.2-1.9-11.3-6-15.2C85.3,356.7,80.2,354.7,74,354.7z M79.5,381.5
		c-1.4,1.7-3.1,2.6-5.3,2.6c-2.2,0-4-0.9-5.4-2.6c-1.3-1.5-2-3.5-2-5.7s0.7-4.1,2-5.7c1.4-1.7,3.2-2.6,5.4-2.6s3.9,0.8,5.3,2.5
		c1.3,1.7,2,3.6,2,5.8C81.5,378,80.9,380,79.5,381.5z"/>
	<path class="st0" d="M126.3,355.2c-2.2,0-4.6,0.8-7.2,2.3c-2.6,1.5-3.8,2.3-3.5,2.3c-0.3,0-0.4-0.7-0.6-2.1
		c-0.1-1.4-0.7-2.1-1.8-2.1c-1.3,0-3.4,0.2-6.4,0.7c-3.1,0.4-5.1,0.9-6.2,1.3c-0.3,0.1-0.5,0.4-0.5,0.8c0,0.2,0,0.4,0.1,0.7
		c0.9,4.5,1.4,9.9,1.4,16.3l-0.1,31.8c0,0.8,0.4,1.3,1.2,1.5c0.6,0.1,1.8,0.2,3.7,0.2h8.4c0.9,0,1.4-0.4,1.4-1.3
		c0-1.4-0.1-3.5-0.2-6.3s-0.2-4.9-0.2-6.3c0-0.8,0.1-1.2,0.5-1.2c-0.2,0,0.9,0.6,3.3,1.6c2.4,1.1,4.7,1.6,6.8,1.6
		c5.8,0,10.5-2,14.1-6c3.5-3.9,5.2-8.8,5.2-14.7c0-6.1-1.7-11.1-5-15.2C137.1,357.2,132.3,355.2,126.3,355.2z M123.2,384.5
		c-2.3,0-4.1-0.8-5.4-2.5c-1.2-1.5-1.8-3.5-1.8-5.8s0.5-4.2,1.7-5.8c1.3-1.7,3.1-2.6,5.3-2.6c2.1,0,3.9,0.9,5.4,2.6
		c1.3,1.7,2,3.6,2,5.8C130.4,381.8,128,384.5,123.2,384.5z"/>
	<path class="st0" d="M179.1,351.9c2.4,0,4.6,0.6,6.8,1.7c1.4,0.7,2.9,1.8,4.4,3.1c1.3,1.1,2,1.7,2.1,1.7c0.3,0,0.6-0.1,0.8-0.3
		c0.5-0.4,1.7-2.3,3.6-5.7c1.9-3.3,2.9-5.3,2.9-5.8s-0.2-1-0.8-1.6c-5.1-5.5-12.1-8.2-21-8.2c-8.2,0-15,3.1-20.3,9.2
		c-5.1,5.8-7.7,12.9-7.7,21.3c0,8.7,2.6,15.8,7.8,21.5c5.3,5.9,12.3,8.8,20.9,8.8c8.4,0,15.1-3.1,20.2-9.1c0.6-0.7,0.9-1.3,0.9-1.7
		c0-0.3-1-2-3.1-5.3c-2-3-3.2-4.7-3.6-5.2c-0.2-0.3-0.5-0.5-0.8-0.5c-0.1,0-0.8,0.6-2,1.6c-1.5,1.2-2.9,2.2-4.3,2.9
		c-2.1,1.1-4.4,1.6-6.8,1.6c-4,0-7.3-1.5-9.7-4.6c-2.2-2.8-3.3-6.3-3.3-10.5c0-4.1,1.1-7.6,3.3-10.4
		C171.8,353.4,175,351.9,179.1,351.9z"/>
	<path class="st0" d="M241.3,358.3c-2.4-1.9-5.4-2.8-8.9-2.8c-2,0-4.1,0.4-6.3,1.4c-1.5,0.7-3,1.6-4.6,2.7c-1.3,0.9-2,1.4-2.1,1.4
		c-0.3,0-0.4-0.2-0.4-0.8c0-3.6,0-8.6,0.2-14.8c0-0.6,0.1-1.8,0.2-3.6c0.1-1.5,0.2-2.7,0.2-3.6c0-0.6-0.3-0.9-0.7-0.9l-7.5,0.9
		c-0.3,0-1.6,0.1-3.8,0.2c-1.7,0.1-2.9,0.3-3.8,0.5c-0.4,0.1-0.6,0.4-0.6,0.8c0,0.2,0,0.4,0.1,0.8c0.3,1.7,0.6,3.8,0.7,6.2
		c0,2.1,0.1,4.1,0.2,6.2c0.2,5.9,0.3,13.4,0.3,22.4c0,2.2,0,5.4,0,9.8c0,4.3,0,7.6,0,9.8c0,0.7,0.5,1.2,1.5,1.4
		c1,0.2,2.6,0.3,4.9,0.3c3.9,0,6.3-0.1,7.2-0.2c0.9-0.1,1.3-0.7,1.3-1.7c0-1.3,0-3.3-0.1-6c-0.1-2.7-0.1-4.7-0.1-6v-10.2
		c0-1,0.8-2,2.4-3c1.5-0.9,2.8-1.3,3.9-1.3c3.3,0,4.9,1.6,4.9,4.8c0,2.4,0,5.9-0.1,10.7c-0.1,4.8-0.1,8.3-0.1,10.7
		c0,1,0.5,1.6,1.4,1.8c1.2,0.2,3.3,0.3,6.3,0.3c3.1,0,5.1-0.1,6-0.2c0.8-0.1,1.2-0.6,1.2-1.6l0.1-28.5
		C245.2,362.7,243.9,360,241.3,358.3z"/>
	<path class="st0" d="M270.6,354.7c-6.4,0-11.5,2-15.2,6s-5.6,9.2-5.6,15.6c0,6.1,2,11,5.9,14.9c3.9,3.9,8.9,5.8,15,5.8
		c6.3,0,11.4-2,15.2-5.9c3.9-3.9,5.8-9,5.8-15.3c0-6.2-1.9-11.3-6-15.2C281.9,356.7,276.8,354.7,270.6,354.7z M276.1,381.5
		c-1.4,1.7-3.1,2.6-5.3,2.6c-2.2,0-4-0.9-5.4-2.6c-1.3-1.5-2-3.5-2-5.7s0.7-4.1,2-5.7c1.4-1.7,3.2-2.6,5.4-2.6s3.9,0.8,5.3,2.5
		c1.3,1.7,2,3.6,2,5.8C278.1,378,277.5,380,276.1,381.5z"/>
	<path class="st0" d="M305.1,339.2c-2.2,0-4.1,0.6-5.7,1.9c-1.7,1.4-2.6,3.1-2.6,5.3c0,2.3,0.8,4.1,2.5,5.4c1.5,1.2,3.4,1.8,5.7,1.8
		c5.4,0,8.1-2.4,8.1-7.2c0-2.1-0.9-3.8-2.4-5.3C309.1,339.8,307.3,339.2,305.1,339.2z"/>
	<path class="st0" d="M311.9,356.9c-0.8,0-2,0.1-3.6,0.2c-1.6,0.1-2.8,0.2-3.6,0.2c-0.8,0-2,0-3.6-0.2c-1.5-0.1-2.7-0.2-3.5-0.2
		c-0.7,0-1.1,0.2-1.1,0.8c0,0.2,0,0.5,0.1,0.9c0.6,4.6,0.9,10.9,0.9,18.7c0,1.9,0,4.8-0.1,8.6c-0.1,3.8-0.1,6.7-0.1,8.6
		c0,0.7,0,1.1,0.1,1.2c0.1,0.2,0.5,0.4,1.1,0.5c1,0.1,3.1,0.2,6.4,0.2s5.4,0,6.3-0.2c0.7-0.1,1-0.4,1-1c0-2,0-5-0.1-9
		c-0.1-4-0.1-7-0.1-9c0-7.1,0.3-13.3,0.8-18.7c0.1-0.4,0.1-0.7,0.1-0.8C312.9,357.2,312.6,356.9,311.9,356.9z"/>
	<path class="st0" d="M340.9,367.5c1,0,2.4,0.3,4,0.7c1.6,0.5,2.5,0.7,2.5,0.7c0.2,0,0.5-0.2,0.8-0.8c0.2-0.5,0.7-2.2,1.5-5
		c0.8-2.9,1.2-4.6,1.2-4.9c0-0.3-0.4-0.7-1.1-1.1c-3.1-1.7-6.7-2.6-10.8-2.6c-6,0-11,2.1-15,6.2c-3.9,4.1-5.9,9.2-5.9,15.2
		c0,6.1,2,11.2,5.9,15.3c3.9,4.1,8.9,6.1,15,6.1c1.6,0,3.8-0.3,6.4-0.9c3.4-0.8,5.1-1.7,5.1-2.7c0-1.1-0.4-3.2-1-6.4
		c-0.7-3.5-1.3-5.3-1.8-5.3c0,0-0.7,0.3-2.2,0.9c-1.5,0.6-2.9,0.9-4.1,0.9c-2.5,0-4.6-0.8-6.2-2.2c-1.6-1.5-2.4-3.5-2.4-6
		s0.7-4.4,2.2-5.9S338.4,367.5,340.9,367.5z"/>
	<path class="st0" d="M390.4,378.5c1.8-0.4,2.7-2,2.7-4.8c0-5.3-1.8-9.9-5.8-13.7c-3.7-3.9-8.2-5.8-13.5-5.8
		c-6.2,0-11.3,2.1-15.1,6.3c-3.7,4.1-5.5,9.3-5.5,15.6c0,6.5,2.1,11.7,6.2,15.6c4,3.8,9.3,5.7,15.9,5.7c7.1,0,12.3-1.8,15.7-5.4
		c0.4-0.5,0.6-0.8,0.6-1c0-0.6-0.6-2.3-2-4.8c-1.3-2.5-2.3-3.9-2.9-4.2c-1,0.7-2.1,1.3-3.1,2c-2.5,1.3-4.9,2-7.4,2
		c-2.1,0-3.9-0.4-5.5-1.2c-1.9-0.9-3.1-2.3-3.5-4.1c6.5-0.5,11.3-0.9,14.6-1.3C387.2,378.9,390.1,378.6,390.4,378.5z M377.3,371.9
		c-4.3,0.7-7.5,1-9.5,1c-0.8,0-1.2-0.4-1.2-1.1c0-1.9,0.6-3.4,1.6-4.8c1.1-1.5,2.6-2.2,4.3-2.2c1.6,0,3.1,0.6,4.3,1.9
		s1.8,2.8,1.8,4.5C378.6,371.5,378.2,371.7,377.3,371.9z"/>
	<path class="st0" d="M111.7,276.9c0.6,5.4,2.6,9.2,7.6,11.3c46,0,91.9,0,137.7-0.5c5.6-2,7.4-6.2,8-11.8c1.1-10.9,2.6-21.7,4-32.6
		c2.9-23.2,5.9-46.5,8.8-69.7c3.3-26.2,6.4-52.4,9.9-78.6c0.8-5.9-0.6-10.1-5.7-13c-1.6-0.9-1.8-1.7-0.9-3.4
		c6.7-13.2,0.1-29.1-13.9-33.8c-1.7-0.6-2.2-1.5-2.6-3c-1.5-6-5.3-10-11.2-11.8c-1.4-0.5-2.2-1.2-2.9-2.6
		c-5.7-12.3-21.3-15.2-31.3-5.8c-0.4,0.4-0.7,1.4-1.7,1.1c-0.6-2.1-1.3-4.1-2.3-6c-1.8-3.4-3.1-3.9-6.8-2.8
		c-0.1,0.1-0.2,0.2-0.3,0.3c-1.9-2.6-4.4-4.7-7.2-6.2V7.9c0.6-3.6-0.2-5-3.8-6.2c-14.7-4.9-30.3,1.7-37.4,15.8
		c-0.6,1.2-0.7,2.2-2.4,0.9c-7.9-5.9-16.6-6.9-25.3-2.3c-8.9,4.7-13.3,12.4-12.8,22.6c0,1.5-0.5,2.1-1.8,2.5c-2.9,1-5.3,2.9-6.6,5.7
		c-0.7,1.5-1.7,1.9-3.2,2.1C94,51.1,86.9,66.7,94.4,78.3c1.6,2.3,1.8,3.4-0.8,4.9c-4,2.3-5.5,5.9-4.8,10.5c0.8,4.7,1.2,9.5,1.8,14.2
		c2.4,18.6,4.7,37.2,7,55.8c2.4,18.8,4.7,37.5,7.1,56.3C107,239,109.6,257.9,111.7,276.9z M206.6,256.8
		C206.6,256.8,206.6,256.8,206.6,256.8C206.6,256.8,206.6,256.8,206.6,256.8C206.6,256.8,206.6,256.8,206.6,256.8z"/>
	<path class="st0" d="M330.1,194.3c-0.9-3.3,0.1-5.8,1.4-8.5c0-1.1,0-2.2,0.2-3.4c-0.8-0.2-0.5-0.9-0.6-1.4
		c-1.2-5.4-4.4-9.1-9.6-10.8c-5.4-1.8-10.3-0.5-14.3,3.4c-1.1,1-2,1.4-3.4,1.4c-7.6-0.1-13.5,5.5-14.2,13.1
		c-0.7,6.9,4.6,13.8,11.7,14.9c1.7,0.3,2.7,0.9,3.7,2.3c3.8,5.4,11,7.3,17,4.6C328,207.3,331.8,200.5,330.1,194.3z"/>
	<path class="st0" d="M61,151.5c1.7-0.5,2.9-0.2,4.4,0.7c4.7,2.8,9.5,2.8,14.2,0.1c4.6-2.6,6.9-6.9,7.1-11.7c0-3.9-1-7-3.3-9.6
		c-1-1.1-1.3-2.1-1.3-3.5c0-6.7-4.7-12.5-11-13.8c-6.8-1.4-13.4,1.9-16.1,8.3c-0.6,1.5-1.5,2.3-3,2.9c-6.7,2.9-10,10.4-7.7,17.3
		C46.6,149.2,53.8,153.3,61,151.5z"/>
</g>
<g>
	<g>
		<g>
			<path class="st0" d="M119.2,288.1c-5-2.1-7-5.9-7.6-11.3c-2.1-19-4.7-37.9-7-56.9c-2.4-18.8-4.7-37.5-7.1-56.3
				c-2.3-18.6-4.6-37.2-7-55.8c-0.6-4.7-1-9.5-1.8-14.2c-0.7-4.6,0.8-8.2,4.8-10.5c2.6-1.5,2.4-2.6,0.8-4.9
				c-7.5-11.6-0.4-27.2,13.2-29.3c1.5-0.2,2.5-0.6,3.2-2.1c1.3-2.8,3.7-4.7,6.6-5.7c1.3-0.4,1.8-1,1.8-2.5
				c-0.5-10.2,3.9-17.9,12.8-22.6c8.7-4.6,17.4-3.6,25.3,2.3c1.7,1.3,1.8,0.3,2.4-0.9C166.7,3.3,182.3-3.3,197,1.6
				c3.6,1.2,4.4,2.6,3.8,6.2c-1.5,2-3.3,2.7-5.8,1.9c-14.9-4.4-27.6,3.7-29.8,19c-0.4,2.5-1.3,4.2-3.8,5c-2.5,0-3.9-1.5-5-3.4
				c-0.1-0.3-0.2-0.7-0.4-1c-4.2-7.1-13-9.7-20.2-6c-7.6,3.9-10.3,12.5-6.5,20.7c-0.2,1.1-0.3,2.2-0.5,3.2c-1.6,1.9-3.5,2.2-5.8,1.6
				c-2.8-0.7-4.8,0.7-5.3,3.5c-0.8,4.3-1.8,4.9-6,4.7c-4.5-0.3-8.1,1.5-10.4,5.4c-2.1,3.7-2.3,7.6,0.3,11.3c1.3,2.7,3.2,4,6.3,3
				c0.9-0.3,1.9-0.2,2.8-0.3c7.6-0.3,14.4,2.3,20.5,6.5c2.3,1.6,3.2-0.3,4.6-1c1.7-0.9,0.4-1.9,0-2.8c-2.6-5.5-3-11.2-1.3-17
				c2.8-9.7,12.4-17,22.2-16.8c2,0,3.5,0.8,4.2,2.6c0.7,1.7,0.3,3.3-1.1,4.6c-1.2,1.1-2.7,1.1-4.2,1.2c-10.5,0.8-17,12.6-12,21.9
				c0.5,1,0.9,1.9,2.5,1.5c8.3-2.2,15.8-0.1,22.5,4.8c1.5,1.1,2.3,1.1,3.8-0.1c5.6-4.7,12.1-6.6,19.4-5c4.6,1,8.6,3,12.4,5.7
				c1.2,0.9,1.9,0.8,3.1-0.1c11.3-8.3,22.5-8.3,34.3-0.2c1.6,1.1,2.7,1.2,4.4,0.1c7.5-4.8,15.5-7.5,24.5-5.5c1.8,0.4,2.3-0.5,3-1.7
				c5.3-9.7-1-21.7-12-23.1c-3.8-0.5-5-1.7-4.9-5.4c0.1-5.6-2.5-8.6-8.1-9c-2.6-0.2-4.1-1.4-4.7-3.9c-1.5-6-5.5-9.4-11-9.3
				c-5.6,0-9.5,3.6-11,9.7c-0.8,3.6-3.3,4.9-7.9,4.2c-3-0.4-4.2-2.1-4-5.6c0.3-5-0.6-9.7-3.3-13.9c-0.4-2,0.4-3.6,1.7-5
				c3.7-1.1,5-0.6,6.8,2.8c1,1.9,1.7,3.9,2.3,6c1,0.3,1.3-0.7,1.7-1.1c10-9.4,25.6-6.5,31.3,5.8c0.7,1.4,1.5,2.1,2.9,2.6
				c5.9,1.8,9.7,5.8,11.2,11.8c0.4,1.5,0.9,2.4,2.6,3c14,4.7,20.6,20.6,13.9,33.8c-0.9,1.7-0.7,2.5,0.9,3.4c5.1,2.9,6.5,7.1,5.7,13
				c-3.5,26.2-6.6,52.4-9.9,78.6c-2.9,23.2-5.9,46.5-8.8,69.7c-1.4,10.9-2.9,21.7-4,32.6c-0.6,5.6-2.4,9.8-8,11.8
				C211.1,288.1,165.2,288.1,119.2,288.1z M138.9,258.8c3.9,0.1,3.5,0.7,3.2-3.2c-0.4-5.9-0.9-11.9-1.5-17.8
				c-0.3-3.2,0.5-5.5,3.7-6.5c2.8,0.4,4.5,1.9,4.7,5c0.5,6.8,1.1,13.6,1.6,20.5c0.1,1.7,0.5,2.2,2.3,2.2c4.7-0.1,9.4-0.2,14.1,0
				c2.7,0.1,3.2-0.8,3.1-3.3c-0.7-28.9-1.3-57.7-1.9-86.6c-0.5-25.2-1.1-50.4-1.6-75.6c0-1.6-0.6-2.6-1.8-3.5
				c-8-6.3-16.3-6.4-25.1-0.3c-1.5,1-2.3,2.1-2.1,4.1c1.1,12.7,2,25.4,3,38.1c1,12.8,2.1,25.6,3.1,38.4c1.2,15.3,2.4,30.6,3.6,46
				c0.3,3.1-0.7,5.1-3.7,6c-3.6-0.8-4.5-1.8-4.7-5.5c-0.4-6-0.9-12-1.4-17.9c-1.6-20.3-3.3-40.7-4.9-61c-1.2-14.7-2.3-29.3-3.5-44
				c-0.1-1-0.1-2-1.2-2.7c-2.4-1.5-4.6-3.2-7.4-3.9c-8.2-3.8-15.6-2.1-22.6,3.1c-0.9,0.7-1.1,1.4-0.9,2.4c0.4,3.2,0.8,6.5,1.2,9.8
				c2.4,19,4.7,37.9,7.1,56.9c2.3,18.6,4.6,37.2,7,55.8c1.7,13.9,3.5,27.9,5.2,41.8c0.2,1.4,0.5,2.1,2.2,2.1
				C126.1,258.8,132.5,258.8,138.9,258.8z M240.4,127.2c-2.9-1-4.1-3-3.7-6.1c0.2-1.2,0.2-2.4,0.3-3.6c0.7-8,1.3-16.1,2-24.1
				c0.1-1.1,0.1-2.1-1-3c-8.8-6.6-17.2-7.4-26-0.7c-1.5,1.1-2.1,2.3-2.1,4.2c-0.2,14.2-0.5,28.3-0.7,42.5
				c-0.2,10.3-0.4,20.6-0.7,30.9c-0.7,29.8-1.3,59.6-2,89.4c0,2,0.7,2.3,2.4,2.3c4.9-0.1,9.8-0.1,14.6,0c2,0.1,2.5-0.8,2.6-2.6
				c1.1-14.1,2.2-28.2,3.3-42.3c1.9-24.3,3.8-48.6,5.7-72.8c0.2-2.8,1.4-4.6,4.5-4.7c1.9,0.2,3.5,1.1,3.8,3.1c0.3,1.8,0,3.7-0.1,5.6
				c-0.7,8.5-1.4,17-2,25.5c-1.2,15.3-2.5,30.6-3.7,46c-1.1,13.5-2.1,26.9-3.2,40.4c-0.1,1.7,0.4,2,1.9,2c6.8-0.1,13.7-0.1,20.5,0
				c1.4,0,1.9-0.3,2-1.8c0.7-6.1,1.5-12.3,2.3-18.4c3.1-24.7,6.2-49.4,9.3-74.2c3-23.7,5.9-47.4,8.9-71.1c0.2-1.7-0.1-2.7-1.5-3.8
				c-10-7.4-19.9-5.3-29.6,1.4c-0.7,0.5-0.8,1.2-0.9,1.9c-0.7,9.3-1.5,18.7-2.2,28C245,125.2,244.3,126.1,240.4,127.2z M176.9,179
				c0.2,11.7,0.5,27.8,0.9,43.9c0.2,11.3,0.5,22.5,0.7,33.8c0,1.6,0.4,2.3,2.2,2.2c5.1-0.1,10.1-0.1,15.2,0c1.8,0.1,2.1-0.5,2.1-2.2
				c1.1-53.4,2.2-106.9,3.5-160.3c0.1-4.4-1.5-6.6-5-8.5c-7.6-4.2-13.7-3.8-19.7,1.3c-1.4,1.2-1.9,2.5-1.9,4.4
				C175.6,120.6,176.2,147.6,176.9,179z M188.4,267.3c-4.3,0-8.6,0-12.9,0c-17.9,0-35.8,0-53.7-0.1c-2.4,0-2.9,0.8-2.5,2.9
				s0.8,4.3,0.9,6.4c0,2.6,1.1,3.2,3.6,3.2c15.4-0.1,30.7-0.1,46.1-0.1c27.7,0,55.3,0,83,0.1c2.7,0,3.7-0.9,3.7-3.5
				c0.1-2.1,0.2-4.2,0.7-6.1c0.7-2.5-0.2-2.9-2.5-2.9C232.6,267.3,210.5,267.3,188.4,267.3z"/>
		</g>
		<g>
			<path class="st0" d="M331.4,185.7c-1.3,2.7-2.3,5.2-1.4,8.5c1.7,6.2-2.1,13-8.1,15.6c-6,2.7-13.2,0.8-17-4.6c-1-1.4-2-2-3.7-2.3
				c-7.1-1.1-12.4-8-11.7-14.9c0.7-7.6,6.6-13.2,14.2-13.1c1.4,0,2.3-0.4,3.4-1.4c4-3.9,8.9-5.2,14.3-3.4c5.2,1.7,8.4,5.4,9.6,10.8
				c0.1,0.5-0.2,1.2,0.6,1.4C331.4,183.5,331.4,184.6,331.4,185.7z M303.8,183.5c-3.7,0.1-6.2,2.5-6,5.8s3,5.7,6.5,5.4
				c4.7-0.3,4.7-0.3,6.5,4.2c0.9,2.3,2.6,3.6,5.1,3.7c2.7,0,4.7-1.1,5.5-3.8c0.9-1.9,0.5-3.6-0.7-5.3c-1.4-2-1.3-3.9,0.2-5.9
				c2.5-3.3,2-6.8-1-8.8s-6.3-1-8.4,2.6c-1.4,2.4-3.3,3.1-5.9,2.3C305.1,183.6,304.4,183.6,303.8,183.5z"/>
		</g>
		<g>
			<path class="st0" d="M86.6,140.5c-0.2,4.8-2.5,9.1-7.1,11.7c-4.7,2.7-9.5,2.7-14.2-0.1c-1.5-0.9-2.7-1.2-4.4-0.7
				c-7.2,1.8-14.4-2.3-16.7-9.3c-2.3-6.9,1-14.4,7.7-17.3c1.5-0.6,2.4-1.4,3-2.9c2.7-6.4,9.3-9.7,16.1-8.3c6.3,1.3,11,7.1,11,13.8
				c0,1.4,0.3,2.4,1.3,3.5C85.6,133.5,86.6,136.6,86.6,140.5z M55.6,142.9c2,1.1,3.7,0.5,5.5-0.5c3.1-1.8,4.4-1.6,6.8,1.1
				c1.6,1.8,3.6,2.7,6,2.1c2.3-0.6,3.8-2.1,4.2-4.4c0.5-2.5-0.4-4.6-2.6-6s-2.8-3.3-2.1-5.7c0.6-2.1,0.4-4-1.3-5.6
				c-1.6-2.1-3.7-2.4-6-1.6c-2.2,0.8-3.4,2.4-3.8,4.8c-0.5,3.9-1.1,4.5-5.1,5.1c-2.9,0.5-4.8,2.2-5,4.8
				C51.8,139.7,52.7,141.9,55.6,142.9z"/>
		</g>
		<g>
			<path class="st1" d="M161.4,33.8c2.4-0.8,3.4-2.5,3.8-5c2.2-15.3,15-23.4,29.8-19c2.6,0.8,4.4,0.1,5.8-1.9
				c2.9,1.5,5.4,3.7,7.3,6.3c-1.3,1.4-2,3-1.7,5c-0.4-0.2-0.9-0.4-1.3-0.6c-15.4-7.4-31.7-0.1-37.4,14.6
				C166.5,36.8,164.2,37,161.4,33.8z"/>
		</g>
		<g>
			<path class="st2" d="M161.4,33.8c2.8,3.2,5.1,3,6.5-0.6c5.7-14.7,21.9-22,37.4-14.6c0.4,0.2,0.9,0.4,1.3,0.6
				c2.7,4.3,3.6,8.9,3.3,13.9c-0.2,3.6,1,5.2,4,5.6c4.6,0.7,7-0.6,7.9-4.2c1.4-6.2,5.4-9.7,11-9.7c5.5,0,9.5,3.4,11,9.3
				c0.6,2.5,2.1,3.7,4.7,3.9c5.6,0.4,8.2,3.4,8.1,9c-0.1,3.7,1,4.9,4.9,5.4c11,1.4,17.3,13.4,12,23.1c-0.7,1.2-1.2,2.1-3,1.7
				c-9-2-17,0.7-24.5,5.5c-1.7,1.1-2.7,1.1-4.4-0.1c-11.7-8.2-22.9-8.1-34.3,0.2c-1.2,0.9-1.9,0.9-3.1,0.1
				c-3.7-2.7-7.8-4.7-12.4-5.7c-7.3-1.6-13.7,0.3-19.4,5c-1.4,1.2-2.3,1.1-3.8,0.1c-6.8-4.9-14.2-7-22.5-4.8c-1.6,0.4-2-0.5-2.5-1.5
				c-5-9.3,1.5-21.1,12-21.9c1.5-0.1,3-0.1,4.2-1.2c1.4-1.3,1.7-2.9,1.1-4.6c-0.7-1.9-2.2-2.6-4.2-2.6c-9.8-0.2-19.4,7-22.2,16.8
				c-1.7,5.8-1.2,11.5,1.3,17c0.4,0.9,1.8,1.9,0,2.8c-1.4,0.7-2.3,2.6-4.6,1c-6.1-4.2-12.9-6.8-20.5-6.5c-0.9,0-1.9,0-2.8,0.3
				c-3.1,1-5-0.4-6.3-3c0.2-0.2,0.5-0.3,0.6-0.6c3.1-6,7.9-9.3,14.8-9.1c1.4,0,2.1-0.8,2.9-1.9c1.3-1.9,2.2-4.6,4.5-5.2
				c5.3-1.3,5.3-4.6,4.4-8.8c-0.1-0.4,0-0.7,0-1.1c0.2-1.1,0.3-2.2,0.5-3.2c1.2-4.6,3.5-8.6,7.5-11.4c6.1-4.4,12.7-4.7,19.6-2.2
				C157.5,32.3,158.9,33.8,161.4,33.8z M213.7,63.5c-0.1,2.9,1.4,4.8,3.8,5c2.2,0.2,4.2-1.4,4.6-4c0.9-5.2,2-6.2,7.3-7.2
				c2.4-0.5,4-2.3,3.9-4.4c-0.1-2.3-2-3.9-4.6-4C221,48.8,213.9,55.7,213.7,63.5z M185.3,32.7c-2.6,0-4.5,1.5-4.7,3.8
				s1.4,4.2,3.9,4.6c3.9,0.7,4.8,1.6,5.5,5.5c0.4,2.5,2.2,4,4.4,3.9c2.3-0.1,4-2.1,4-4.6C198.5,39.1,192.2,32.7,185.3,32.7z"/>
		</g>
		<g>
			<path class="st3" d="M240.4,127.2c3.9-1.1,4.5-2,4.8-6.1c0.7-9.3,1.5-18.7,2.2-28c0.1-0.8,0.1-1.4,0.9-1.9
				c9.6-6.8,19.5-8.8,29.6-1.4c1.4,1,1.8,2.1,1.5,3.8c-3,23.7-6,47.4-8.9,71.1c-3.1,24.7-6.2,49.4-9.3,74.2
				c-0.8,6.1-1.6,12.3-2.3,18.4c-0.2,1.5-0.7,1.8-2,1.8c-6.8-0.1-13.7-0.1-20.5,0c-1.5,0-2.1-0.2-1.9-2c1.1-13.4,2.1-26.9,3.2-40.4
				c1.2-15.3,2.5-30.6,3.7-46c0.7-8.5,1.4-17,2-25.5c0.1-1.9,0.4-3.8,0.1-5.6c-0.3-2-1.9-2.8-3.8-3.1
				C240.3,133.4,240.2,130.3,240.4,127.2z"/>
		</g>
		<g>
			<path class="st4" d="M240.4,127.2c-0.3,3.1-0.1,6.2-0.8,9.3c-3,0.1-4.2,2-4.5,4.7c-1.9,24.3-3.8,48.6-5.7,72.8
				c-1.1,14.1-2.3,28.2-3.3,42.3c-0.1,1.8-0.6,2.6-2.6,2.6c-4.9-0.2-9.7-0.1-14.6,0c-1.7,0-2.5-0.3-2.4-2.3
				c0.7-29.8,1.4-59.6,2-89.4c0.2-10.3,0.5-20.6,0.7-30.9c0.3-14.2,0.6-28.3,0.7-42.5c0-1.9,0.7-3.1,2.1-4.2
				c8.9-6.7,17.2-5.8,26,0.7c1.1,0.8,1.1,1.8,1,3c-0.7,8-1.3,16.1-2,24.1c-0.1,1.2-0.1,2.4-0.3,3.6
				C236.3,124.2,237.6,126.1,240.4,127.2z"/>
		</g>
		<g>
			<path class="st4" d="M143.7,222.1c3.1-0.9,4-2.9,3.7-6c-1.3-15.3-2.4-30.6-3.6-46c-1-12.8-2.1-25.6-3.1-38.4
				c-1-12.7-1.9-25.4-3-38.1c-0.2-2,0.6-3.1,2.1-4.1c8.9-6.1,17.2-6,25.1,0.3c1.2,0.9,1.7,2,1.8,3.5c0.5,25.2,1.1,50.4,1.6,75.6
				c0.6,28.9,1.2,57.7,1.9,86.6c0.1,2.5-0.5,3.4-3.1,3.3c-4.7-0.2-9.4-0.1-14.1,0c-1.7,0-2.2-0.5-2.3-2.2
				c-0.4-6.8-1.1-13.6-1.6-20.5c-0.2-3.1-1.9-4.5-4.7-5C144.1,228.2,143.9,225.2,143.7,222.1z"/>
		</g>
		<g>
			<path class="st3" d="M176.9,179c-0.7-31.4-1.3-58.5-1.9-85.5c0-1.9,0.4-3.1,1.9-4.4c6-5.1,12.1-5.5,19.7-1.3
				c3.5,1.9,5.1,4.1,5,8.5c-1.3,53.4-2.4,106.9-3.5,160.3c0,1.7-0.3,2.2-2.1,2.2c-5.1-0.1-10.1-0.1-15.2,0c-1.8,0.1-2.2-0.6-2.2-2.2
				c-0.2-11.3-0.5-22.5-0.7-33.8C177.5,206.8,177.2,190.7,176.9,179z"/>
		</g>
		<g>
			<path class="st5" d="M138.9,258.8c-6.4,0-12.7,0-19.1,0.1c-1.7,0-2-0.7-2.2-2.1c-1.7-13.9-3.4-27.9-5.2-41.8
				c-2.3-18.6-4.6-37.2-7-55.8c-2.4-19-4.7-37.9-7.1-56.9c-0.4-3.3-0.8-6.5-1.2-9.8c-0.1-1,0.1-1.8,0.9-2.4c7-5.2,14.4-6.9,22.6-3.1
				c-1.9,0.9-2.5,2.5-2.6,4.6c-0.1,2,0.4,3.9,0.7,5.8c0.7,6.7,1.6,13.3,2.4,19.9c0.9,6.8,1.8,13.6,2.6,20.5
				c0.8,6.6,1.6,13.3,2.4,19.9c1,8.2,2.2,16.4,3.2,24.6c1,8.2,1.9,16.4,2.9,24.7c1,8.2,2.2,16.4,3.3,24.6
				C136.7,240.7,137.8,249.7,138.9,258.8z"/>
		</g>
		<g>
			<path class="st4" d="M188.4,267.3c22.1,0,44.2,0,66.4,0c2.3,0,3.2,0.3,2.5,2.9c-0.5,2-0.7,4.1-0.7,6.1c-0.1,2.6-1,3.5-3.7,3.5
				c-27.7-0.1-55.3-0.1-83-0.1c-15.4,0-30.7-0.1-46.1,0.1c-2.5,0-3.6-0.6-3.6-3.2c0-2.1-0.5-4.3-0.9-6.4s0.1-2.9,2.5-2.9
				c17.9,0.1,35.8,0.1,53.7,0.1C179.8,267.3,184.1,267.3,188.4,267.3z"/>
		</g>
		<g>
			<path class="st3" d="M138.9,258.8c-1.1-9-2.2-18.1-3.4-27.1c-1.1-8.2-2.2-16.4-3.3-24.6c-1-8.2-1.9-16.4-2.9-24.7
				c-1-8.2-2.2-16.4-3.2-24.6c-0.8-6.6-1.6-13.3-2.4-19.9c-0.8-6.8-1.7-13.6-2.6-20.5c-0.8-6.6-1.7-13.3-2.4-19.9
				c-0.2-1.9-0.8-3.8-0.7-5.8c0.1-2.1,0.7-3.6,2.6-4.6c2.7,0.8,5,2.5,7.4,3.9c1.1,0.7,1.1,1.7,1.2,2.7c1.2,14.7,2.3,29.3,3.5,44
				c1.6,20.3,3.3,40.7,4.9,61c0.5,6,0.9,11.9,1.4,17.9c0.3,3.7,1.1,4.7,4.7,5.5c0.2,3.1,0.4,6.1,0.7,9.2c-3.2,1-4.1,3.3-3.7,6.5
				c0.6,5.9,1.1,11.9,1.5,17.8C142.4,259.5,142.8,258.9,138.9,258.8z"/>
		</g>
		<g>
			<path class="st1" d="M128.7,47.3c0,0.4,0,0.8,0,1.1c0.9,4.1,0.8,7.5-4.4,8.8c-2.3,0.5-3.1,3.3-4.5,5.2c-0.7,1.1-1.4,1.9-2.9,1.9
				c-6.9-0.2-11.7,3-14.8,9.1c-0.1,0.2-0.4,0.4-0.6,0.6c-2.6-3.7-2.5-7.6-0.3-11.3c2.2-3.9,5.9-5.7,10.4-5.4c4.2,0.3,5.1-0.4,6-4.7
				c0.5-2.8,2.5-4.2,5.3-3.5C125.3,49.5,127.2,49.1,128.7,47.3z"/>
		</g>
		<g>
			<path class="st1" d="M156.4,30.4c-6.9-2.5-13.5-2.2-19.6,2.2c-4,2.9-6.3,6.8-7.5,11.4c-3.8-8.1-1.1-16.7,6.5-20.7
				c7.2-3.8,16.1-1.1,20.2,6C156.2,29.7,156.3,30,156.4,30.4z"/>
		</g>
		<g>
			<path class="st2" d="M303.8,183.5c0.6,0.1,1.3,0.1,1.9,0.3c2.6,0.9,4.5,0.1,5.9-2.3c2.1-3.6,5.3-4.6,8.4-2.6c3,1.9,3.5,5.5,1,8.8
				c-1.5,2-1.6,3.8-0.2,5.9c1.1,1.6,1.5,3.4,0.7,5.3c-2.5-0.7-3.7-2.8-4.6-4.9c-0.6-1.3-0.9-1.8-2.6-1.6
				C309.2,193.1,303.9,188.4,303.8,183.5z"/>
		</g>
		<g>
			<path class="st1" d="M303.8,183.5c0.1,4.9,5.4,9.6,10.4,8.9c1.7-0.2,2,0.3,2.6,1.6c1,2.1,2.1,4.2,4.6,4.9
				c-0.8,2.7-2.8,3.9-5.5,3.8c-2.5,0-4.2-1.4-5.1-3.7c-1.9-4.4-1.9-4.5-6.5-4.2c-3.6,0.2-6.4-2.1-6.5-5.4
				C297.6,186,300.1,183.6,303.8,183.5z"/>
		</g>
		<g>
			<path class="st2" d="M72,123.8c1.7,1.6,1.9,3.5,1.3,5.6c-0.7,2.5-0.1,4.3,2.1,5.7s3.1,3.5,2.6,6c-0.4,2.3-1.9,3.8-4.2,4.4
				c-2.4,0.6-4.4-0.2-6-2.1c-2.4-2.7-3.7-2.9-6.8-1.1c-1.8,1-3.6,1.7-5.5,0.5c0.4-4.8,2.6-7.5,7.3-9.1c1-0.4,2.7,0.1,2.9-2
				C66.2,127.9,68.7,125.5,72,123.8z"/>
		</g>
		<g>
			<path class="st1" d="M72,123.8c-3.3,1.7-5.8,4.2-6.2,8.1c-0.2,2.1-1.8,1.6-2.9,2c-4.7,1.6-7,4.3-7.3,9.1c-2.8-1-3.7-3.2-3.5-6
				c0.3-2.6,2.1-4.3,5-4.8c3.9-0.7,4.5-1.2,5.1-5.1c0.3-2.4,1.5-4,3.8-4.8C68.2,121.4,70.4,121.7,72,123.8z"/>
		</g>
		<g>
			<path class="st0" d="M213.7,63.5c0.2-7.8,7.3-14.7,15-14.5c2.6,0,4.4,1.6,4.6,4c0.1,2.1-1.5,4-3.9,4.4c-5.3,1-6.4,2.1-7.3,7.2
				c-0.4,2.5-2.4,4.2-4.6,4C215.1,68.2,213.7,66.3,213.7,63.5z"/>
		</g>
		<g>
			<path class="st0" d="M185.3,32.7c6.8,0,13.2,6.4,13.1,13.2c0,2.5-1.7,4.4-4,4.6c-2.2,0.1-3.9-1.4-4.4-3.9
				c-0.7-3.9-1.6-4.9-5.5-5.5c-2.6-0.4-4.2-2.3-3.9-4.6C180.9,34.2,182.7,32.6,185.3,32.7z"/>
		</g>
	</g>
</g>
</svg>
